<?xml version="1.0" standalone="no"?>
<!DOCTYPE svg PUBLIC "-//W3C//DTD SVG 20010904//EN"
 "http://www.w3.org/TR/2001/REC-SVG-20010904/DTD/svg10.dtd">
<svg version="1.0" xmlns="http://www.w3.org/2000/svg"
 width="1024.000000pt" height="1024.000000pt" viewBox="0 0 1024.000000 1024.000000"
 preserveAspectRatio="xMidYMid meet">

<g transform="translate(0.000000,1024.000000) scale(0.100000,-0.100000)"
fill="#000000" stroke="none">
<path d="M680 10224 c-193 -41 -376 -154 -495 -306 -64 -81 -134 -218 -162
-318 -17 -62 -18 -237 -18 -4480 0 -4243 1 -4418 18 -4480 49 -174 164 -349
299 -455 81 -64 218 -134 318 -162 62 -17 237 -18 4480 -18 4243 0 4418 1
4480 18 174 49 349 164 455 299 64 81 134 218 162 318 17 62 18 237 18 4480 0
4243 -1 4418 -18 4480 -28 100 -98 237 -162 318 -104 132 -275 246 -450 299
-58 17 -242 18 -4460 20 -3737 1 -4410 -1 -4465 -13z m2960 -3350 c0 -4 -27
-37 -61 -75 l-61 -69 -242 0 c-239 0 -300 -7 -364 -37 -20 -10 -78 -71 -153
-162 l-121 -146 823 -3 824 -2 117 123 c164 174 282 252 454 301 266 76 372
80 2139 69 l1500 -8 -85 -45 -85 -45 -1350 -5 -1350 -5 -56 -27 c-70 -35 -224
-191 -599 -608 -151 -168 -344 -375 -430 -462 -147 -148 -160 -158 -250 -201
-52 -25 -120 -50 -150 -57 -37 -7 -353 -13 -990 -17 l-935 -6 -125 57 c-209
95 -249 117 -290 162 -45 49 -57 93 -41 152 16 57 54 111 236 327 594 709 566
677 634 719 50 32 120 55 201 65 75 10 810 14 810 5z m4707 -213 c83 -38 85
-95 8 -250 l-56 -111 -125 0 -124 0 14 33 c7 17 28 62 47 99 36 73 33 97 -10
75 -14 -7 -43 -51 -73 -109 l-51 -98 -133 0 c-74 0 -134 3 -134 6 0 3 21 46
46 96 104 201 226 276 449 277 77 0 109 -4 142 -18z m-2237 7 c0 -2 -11 -37
-23 -78 l-24 -75 -131 -3 -132 -3 -52 -104 -53 -105 -132 0 c-73 0 -133 4
-133 9 0 5 41 88 91 185 l91 176 249 0 c137 0 249 -1 249 -2z m278 -11 c-2 -7
-30 -90 -63 -185 l-60 -172 -112 0 c-62 0 -113 3 -113 7 0 7 45 171 81 296
l20 67 125 0 c96 0 125 -3 122 -13z m425 -1 c-4 -7 -62 -90 -128 -184 l-120
-171 -102 -1 c-57 0 -103 3 -103 6 0 3 50 87 112 185 l111 179 119 0 c98 0
118 -2 111 -14z m937 9 c0 -21 -75 -148 -89 -152 -10 -3 -41 -49 -72 -109
l-54 -104 -122 0 c-94 0 -121 3 -117 13 2 6 24 53 48 102 24 50 41 93 38 97
-4 3 -59 4 -123 1 l-116 -6 -54 -103 -54 -104 -123 0 -122 0 51 101 c35 70 47
104 39 109 -8 5 0 30 27 83 l37 77 403 0 c222 0 403 -2 403 -5z m-2120 -481
c0 -9 -360 -716 -373 -731 -12 -17 -267 -18 -267 -2 0 6 84 174 188 375 l187
364 133 0 c72 0 132 -3 132 -6z m590 -4 c0 -5 -13 -46 -30 -91 -16 -46 -28
-84 -26 -86 1 -2 29 39 61 92 l57 95 94 0 c59 0 94 -4 94 -10 0 -19 -392 -563
-449 -623 -31 -33 -78 -69 -110 -85 -51 -24 -69 -27 -184 -31 l-128 -3 40 80
40 80 67 4 c58 4 70 8 89 32 14 17 46 114 89 268 37 132 71 251 76 264 9 23
13 24 115 24 61 0 105 -4 105 -10z m748 -3 c-2 -7 -86 -176 -188 -375 l-185
-362 -123 0 -122 0 36 73 c20 39 106 208 191 375 l155 302 120 0 c94 0 119 -3
116 -13z m501 1 c0 -7 -85 -175 -187 -373 l-187 -360 -117 -3 c-85 -2 -118 1
-118 9 0 6 84 175 187 375 l188 364 117 0 c88 0 118 -3 117 -12z m441 3 c0 -5
-63 -132 -141 -281 -77 -150 -138 -278 -135 -286 7 -19 40 -17 58 4 8 9 48 80
88 157 40 77 77 146 83 153 12 15 237 17 237 2 0 -6 -36 -82 -80 -171 -90
-179 -131 -229 -223 -272 -90 -43 -171 -60 -262 -55 -144 9 -205 53 -191 141
6 33 268 565 299 605 11 14 267 18 267 3z m-4090 -871 c0 -27 3 -30 30 -30 34
0 50 -23 50 -72 0 -42 -17 -66 -50 -71 -18 -3 -26 -11 -28 -30 -4 -35 -20 -35
-24 1 -2 16 -8 26 -17 24 -7 -1 -24 4 -37 13 -19 12 -24 24 -24 58 0 50 15 74
50 79 19 2 26 10 28 31 4 37 22 35 22 -3z m1938 18 c-3 -7 -13 -14 -24 -16
-50 -7 -64 -14 -64 -27 0 -11 7 -14 23 -10 61 16 99 -85 48 -126 -54 -44 -101
-8 -101 77 0 63 12 91 43 104 34 14 79 12 75 -2z m-3883 -4 c8 -4 22 -19 30
-35 43 -82 -16 -171 -102 -154 -52 9 -42 34 11 28 37 -5 46 -2 60 18 27 39 21
49 -29 49 -25 0 -45 5 -45 10 0 6 20 10 45 10 50 0 55 10 24 41 -17 17 -29 20
-60 15 -36 -6 -49 1 -32 17 8 9 76 9 98 1z m313 -57 c6 -5 12 -20 12 -33 0
-22 -4 -24 -46 -24 -41 0 -45 -2 -42 -22 3 -20 9 -23 46 -23 50 0 57 -20 11
-30 -42 -9 -83 20 -87 63 -7 70 53 110 106 69z m1990 -5 c34 -43 -1 -125 -54
-127 -24 -1 -30 -7 -32 -28 -2 -15 -8 -27 -13 -27 -5 0 -9 45 -9 99 l0 100 33
3 c40 4 59 -1 75 -20z m745 0 c40 -35 9 -132 -43 -132 -29 0 -70 44 -70 75 0
71 60 102 113 57z m680 0 c40 -35 9 -132 -43 -132 -29 0 -70 44 -70 75 0 71
60 102 113 57z m295 0 c6 -9 12 -33 12 -53 0 -29 -6 -42 -27 -59 -15 -12 -35
-19 -45 -17 -12 4 -18 -2 -20 -21 -2 -14 -9 -27 -15 -30 -10 -3 -13 21 -13 97
l0 100 33 3 c40 4 59 -1 75 -20z m940 4 c5 -6 12 -21 15 -33 5 -22 2 -23 -45
-23 -46 0 -49 -2 -46 -22 3 -20 9 -23 46 -23 50 0 57 -20 11 -30 -86 -19 -127
114 -45 145 24 8 52 3 64 -14z m1062 -16 c24 -59 -20 -131 -70 -115 -17 5 -20
2 -20 -24 0 -17 -4 -31 -10 -31 -6 0 -10 40 -10 101 0 77 3 100 13 96 6 -2 21
-1 32 3 31 11 52 1 65 -30z m-5850 -40 c0 -40 -4 -70 -10 -70 -6 0 -10 27 -10
60 0 57 -1 60 -25 60 -23 0 -25 -4 -25 -41 0 -47 -14 -79 -35 -79 -17 0 -19
12 -5 26 6 6 13 34 17 62 l6 52 43 0 44 0 0 -70z m200 40 c0 -16 4 -30 10 -30
5 0 16 14 25 30 15 30 17 30 95 30 47 0 80 -4 80 -10 0 -5 -9 -10 -20 -10 -18
0 -20 -7 -20 -60 0 -47 -3 -60 -15 -60 -12 0 -15 13 -15 60 l0 60 -35 0 c-26
0 -39 -6 -51 -25 -15 -23 -14 -26 11 -60 21 -27 24 -35 11 -35 -8 0 -25 14
-38 30 -12 17 -25 30 -30 30 -4 0 -8 -13 -8 -30 0 -16 -4 -30 -10 -30 -6 0
-10 30 -10 70 0 40 4 70 10 70 6 0 10 -13 10 -30z m338 18 c7 -7 12 -31 12
-55 0 -53 -29 -88 -66 -79 -21 6 -24 3 -24 -24 0 -20 -5 -30 -15 -30 -12 0
-15 18 -15 100 l0 100 48 0 c26 0 53 -5 60 -12z m146 -10 c23 -33 20 -75 -9
-103 -29 -30 -58 -32 -85 -5 -25 25 -27 91 -4 114 24 24 80 20 98 -6z m68 -5
c2 -22 8 -28 28 -28 20 0 26 6 28 28 2 15 9 27 18 27 11 0 14 -16 14 -70 0
-56 -3 -70 -15 -70 -10 0 -15 10 -15 30 0 27 -3 30 -30 30 -27 0 -30 -3 -30
-30 0 -20 -5 -30 -15 -30 -12 0 -15 14 -15 70 0 54 3 70 14 70 9 0 16 -12 18
-27z m148 -4 c0 -27 3 -30 28 -27 21 2 28 9 30 31 2 15 9 27 18 27 11 0 14
-16 14 -70 0 -56 -3 -70 -15 -70 -10 0 -15 10 -15 30 0 27 -3 30 -30 30 -27 0
-30 -3 -30 -30 0 -20 -5 -30 -15 -30 -12 0 -15 14 -15 70 0 56 3 70 15 70 10
0 15 -10 15 -31z m220 5 c6 -14 10 -45 10 -68 0 -43 0 -43 -42 -49 -54 -7 -78
6 -78 43 0 32 9 40 52 49 38 8 32 26 -10 26 -19 0 -32 5 -32 13 0 8 16 12 45
12 40 0 47 -3 55 -26z m140 -44 c0 -40 -4 -70 -10 -70 -5 0 -10 11 -10 25 0
15 -6 25 -15 25 -8 0 -22 -11 -31 -25 -9 -14 -23 -25 -30 -25 -18 0 -18 9 2
31 14 16 14 20 -1 42 -26 41 -6 67 50 67 l45 0 0 -70z m146 28 l9 -42 28 42
c15 23 32 42 37 42 6 0 10 -31 10 -70 0 -78 -17 -96 -22 -22 l-3 47 -30 -47
c-43 -68 -55 -63 -55 22 0 78 13 92 26 28z m146 15 c3 -24 8 -28 33 -28 25 0
30 4 33 28 7 55 22 25 22 -43 0 -40 -4 -70 -10 -70 -5 0 -10 14 -10 30 0 28
-3 30 -35 30 -32 0 -35 -2 -35 -30 0 -16 -4 -30 -10 -30 -6 0 -10 30 -10 70 0
68 15 98 22 43z m436 -6 c28 -58 -17 -127 -73 -113 -43 11 -61 77 -35 126 9
17 19 21 53 18 34 -2 44 -8 55 -31z m226 -4 l18 -38 19 38 c32 61 49 49 49
-33 0 -56 -3 -70 -15 -70 -11 0 -15 12 -16 43 0 37 -2 40 -11 20 -15 -31 -34
-29 -52 5 l-15 27 -1 -47 c0 -36 -4 -48 -15 -48 -12 0 -15 14 -15 63 0 35 3
67 7 70 15 15 30 5 47 -30z m214 25 c7 -7 12 -38 12 -69 l0 -56 -42 -7 c-37
-6 -46 -4 -60 15 -10 11 -18 25 -18 30 0 18 41 49 65 49 16 0 25 6 25 16 0 11
-9 15 -32 14 -45 -3 -50 -2 -43 10 9 14 78 13 93 -2z m72 -48 l0 -60 30 0 30
0 0 60 c0 47 3 60 15 60 11 0 15 -12 15 -44 0 -24 3 -64 6 -90 7 -46 -8 -67
-19 -26 -4 17 -14 20 -56 20 l-51 0 0 70 c0 56 3 70 15 70 12 0 15 -13 15 -60z
m152 13 l3 -48 28 48 c41 69 57 63 57 -23 0 -56 -3 -70 -15 -70 -11 0 -15 12
-15 48 l0 47 -30 -47 c-44 -70 -60 -64 -60 22 0 54 3 70 14 70 11 0 16 -14 18
-47z m290 20 c2 -22 9 -29 31 -31 24 -3 27 0 27 27 0 21 5 31 15 31 12 0 15
-14 15 -70 0 -56 -3 -70 -15 -70 -10 0 -15 10 -15 30 0 27 -3 30 -30 30 -27 0
-30 -3 -30 -30 0 -20 -5 -30 -15 -30 -12 0 -15 14 -15 70 0 54 3 70 14 70 9 0
16 -12 18 -27z m150 0 c2 -22 9 -29 31 -31 24 -3 27 0 27 27 0 21 5 31 15 31
12 0 15 -14 15 -70 0 -56 -3 -70 -15 -70 -10 0 -15 10 -15 30 0 27 -3 30 -30
30 -27 0 -30 -3 -30 -30 0 -20 -5 -30 -15 -30 -12 0 -15 14 -15 70 0 54 3 70
14 70 9 0 16 -12 18 -27z m220 10 c41 -37 11 -133 -42 -133 -30 0 -70 44 -70
77 0 64 67 97 112 56z m666 5 c7 -7 12 -38 12 -69 l0 -56 -41 -7 c-49 -8 -69
5 -69 45 0 30 23 49 59 49 13 0 21 6 21 16 0 13 -8 15 -35 12 -24 -3 -35 0
-35 9 0 17 71 18 88 1z m133 -4 c10 -12 10 -20 2 -34 -8 -12 -8 -21 -1 -28 18
-18 1 -59 -27 -66 -33 -8 -75 3 -75 19 0 9 11 12 40 8 36 -5 40 -3 40 16 0 16
-6 21 -25 21 -33 0 -32 16 1 24 35 9 25 31 -14 31 -19 0 -32 5 -32 12 0 19 75
17 91 -3z m139 -3 c5 -11 10 -38 10 -60 0 -63 -53 -91 -101 -52 -18 15 -23 28
-23 60 2 54 18 71 65 71 28 0 41 -5 49 -19z m136 -16 c1 -16 5 -38 9 -49 13
-31 -8 -51 -59 -54 l-46 -3 0 71 0 71 48 -3 c45 -3 47 -5 48 -33z m138 19 c3
-9 6 -39 6 -69 l0 -52 -41 -7 c-49 -8 -69 5 -69 45 0 30 23 49 59 49 13 0 21
6 21 16 0 13 -8 15 -35 12 -24 -3 -35 0 -35 9 0 20 86 17 94 -3z m146 7 c0 -5
-10 -11 -22 -13 -20 -3 -23 -10 -26 -60 -2 -32 -7 -58 -12 -58 -5 0 -10 26
-12 58 -3 50 -6 57 -25 60 -47 7 -21 22 37 22 33 0 60 -4 60 -9z m270 -61 c0
-56 -3 -70 -15 -70 -12 0 -15 13 -15 60 0 53 -2 60 -19 60 -16 0 -21 -10 -28
-51 -5 -31 -15 -56 -25 -63 -24 -14 -34 -1 -14 19 10 11 16 34 16 66 l0 49 50
0 50 0 0 -70z m60 45 c0 -19 5 -25 21 -25 36 0 59 -19 59 -49 0 -33 -14 -41
-71 -41 l-39 0 0 70 c0 56 3 70 15 70 9 0 15 -9 15 -25z m132 -2 c2 -22 9 -29
31 -31 24 -3 27 0 27 27 0 21 5 31 15 31 12 0 15 -14 15 -70 0 -56 -3 -70 -15
-70 -10 0 -15 10 -15 30 0 27 -3 30 -30 30 -27 0 -30 -3 -30 -30 0 -20 -5 -30
-15 -30 -12 0 -15 14 -15 70 0 54 3 70 14 70 9 0 16 -12 18 -27z m216 15 c7
-7 12 -38 12 -69 l0 -56 -42 -7 c-37 -6 -46 -4 -60 15 -10 11 -18 25 -18 30 0
18 41 49 65 49 16 0 25 6 25 16 0 11 -9 15 -32 14 -45 -3 -50 -2 -43 10 9 14
78 13 93 -2z m152 -58 c0 -56 -3 -70 -15 -70 -9 0 -15 9 -15 25 0 14 -5 25
-11 25 -6 0 -20 -11 -31 -25 -11 -14 -26 -25 -34 -25 -12 0 -11 6 5 27 19 23
20 28 6 43 -34 38 -10 70 52 70 l43 0 0 -70z m217 54 c2 -7 -10 -11 -34 -10
-32 1 -38 -3 -47 -27 -15 -41 2 -62 48 -61 42 2 44 -16 3 -30 -58 -21 -104 52
-72 114 15 28 20 31 57 28 23 -2 43 -8 45 -14z m273 -3 c21 -41 13 -51 -40
-51 -36 0 -50 -4 -50 -14 0 -24 28 -39 65 -33 38 6 47 -6 16 -23 -32 -16 -60
-12 -86 15 -29 28 -32 70 -9 103 20 30 88 31 104 3z m140 -40 c0 -33 5 -63 10
-66 16 -10 12 -55 -5 -55 -8 0 -15 9 -15 20 0 17 -7 20 -45 20 -38 0 -45 -3
-45 -20 0 -11 -5 -20 -10 -20 -20 0 -23 32 -6 60 9 16 19 49 22 74 l7 46 43 0
44 0 0 -59z m138 -12 l3 -66 -37 -6 c-49 -8 -74 6 -74 43 0 32 9 40 52 49 38
8 32 26 -10 26 -20 0 -32 5 -32 13 0 9 14 12 48 10 l47 -3 3 -66z m-2848 11
c0 -5 -16 -10 -35 -10 -19 0 -35 5 -35 10 0 6 16 10 35 10 19 0 35 -4 35 -10z"/>
<path d="M2405 6094 c-155 -201 -175 -235 -175 -298 0 -98 61 -172 174 -210
43 -15 115 -17 580 -19 497 -2 534 -1 572 16 31 14 102 87 300 309 142 160
272 306 287 324 l28 34 -823 0 -823 -1 -120 -155z m795 71 c16 -15 20 -27 16
-48 -3 -16 -61 -134 -128 -263 l-123 -235 -70 1 c-38 1 -92 -1 -120 -5 -59 -7
-98 9 -103 43 -4 24 66 162 100 199 11 12 54 38 97 57 144 68 145 69 173 121
17 31 23 54 18 59 -14 14 -53 -27 -80 -84 l-23 -50 -64 0 c-35 0 -63 4 -63 8
0 15 62 126 84 150 44 50 108 72 198 69 49 -2 72 -8 88 -22z m290 17 c0 -4
-23 -75 -50 -157 -28 -82 -49 -154 -47 -159 2 -5 54 66 117 158 l114 166 98 0
c72 0 98 -3 98 -12 -1 -7 -65 -134 -143 -283 l-142 -270 -67 -3 c-38 -2 -68 0
-68 3 0 3 39 80 86 170 47 91 83 165 81 165 -3 0 -61 -76 -128 -170 l-123
-170 -54 0 c-51 0 -53 1 -46 23 31 98 93 321 90 324 -2 2 -45 -75 -95 -171
l-92 -176 -60 0 -60 0 87 168 c140 271 197 376 207 390 11 13 197 18 197 4z"/>
<path d="M2920 5857 c-13 -7 -40 -42 -59 -79 -35 -64 -36 -93 -4 -72 16 10 98
152 91 159 -2 2 -15 -1 -28 -8z"/>
<path d="M3749 5236 c-16 -33 2 -79 29 -74 13 3 17 13 17 48 0 54 -27 69 -46
26z"/>
<path d="M3820 5210 c0 -44 3 -50 20 -50 13 0 24 10 30 25 13 34 -3 75 -30 75
-17 0 -20 -6 -20 -50z"/>
<path d="M5664 5236 c-11 -29 11 -71 39 -74 21 -3 28 2 33 24 4 15 2 34 -3 43
-14 22 -61 27 -69 7z"/>
<path d="M2117 5254 c-15 -16 -5 -24 29 -24 24 0 34 4 32 13 -5 13 -50 22 -61
11z"/>
<path d="M4101 5246 c-7 -8 -11 -30 -9 -48 3 -29 6 -33 33 -33 29 0 30 2 30
45 0 38 -3 45 -21 48 -11 2 -26 -4 -33 -12z"/>
<path d="M4844 5236 c-3 -14 -3 -38 0 -52 5 -20 12 -25 34 -22 25 3 27 6 27
48 0 42 -2 45 -27 48 -22 3 -29 -2 -34 -22z"/>
<path d="M5525 5237 c-4 -14 -5 -36 -3 -48 2 -19 9 -24 33 -24 29 0 30 2 30
45 0 42 -2 45 -27 48 -22 3 -29 -2 -33 -21z"/>
<path d="M5827 5254 c-4 -4 -7 -27 -7 -51 0 -42 1 -44 28 -41 25 3 27 6 27 48
0 38 -3 45 -20 48 -12 2 -24 0 -28 -4z"/>
<path d="M6767 5253 c-15 -15 -5 -23 28 -23 26 0 33 3 29 15 -6 15 -45 21 -57
8z"/>
<path d="M7823 5253 c-20 -7 -17 -82 3 -90 36 -14 62 24 50 73 -6 23 -24 29
-53 17z"/>
<path d="M2523 5253 c-8 -3 -13 -23 -13 -49 0 -40 2 -44 25 -44 34 0 53 39 37
75 -11 24 -24 29 -49 18z"/>
<path d="M2650 5235 c-14 -37 3 -75 34 -75 25 0 36 16 36 54 0 47 -54 64 -70
21z"/>
<path d="M3097 5203 c-4 -3 -7 -15 -7 -25 0 -30 54 -21 58 10 3 17 -1 22 -21
22 -13 0 -27 -3 -30 -7z"/>
<path d="M3237 5253 c-17 -16 -5 -33 23 -33 23 0 30 4 30 20 0 14 -7 20 -23
20 -13 0 -27 -3 -30 -7z"/>
<path d="M3948 5235 c-16 -35 3 -75 36 -75 25 0 36 16 36 54 0 48 -53 63 -72
21z"/>
<path d="M4410 5195 c-16 -20 -1 -39 26 -33 27 5 32 48 6 48 -11 0 -25 -7 -32
-15z"/>
<path d="M5284 5236 c-3 -14 -3 -38 0 -52 5 -20 12 -25 34 -22 25 3 27 6 27
48 0 42 -2 45 -27 48 -22 3 -29 -2 -34 -22z"/>
<path d="M5960 5195 c-16 -20 -1 -39 26 -33 27 5 32 48 6 48 -11 0 -25 -7 -32
-15z"/>
<path d="M6222 5248 c-7 -7 -12 -24 -12 -38 0 -51 52 -69 72 -25 22 49 -25 98
-60 63z"/>
<path d="M6362 5243 c4 -20 27 -27 47 -14 19 12 4 31 -25 31 -19 0 -25 -5 -22
-17z"/>
<path d="M6362 5183 c2 -11 14 -19 31 -21 22 -3 27 1 27 17 0 17 -6 21 -31 21
-24 0 -30 -4 -27 -17z"/>
<path d="M6500 5195 c-14 -17 -5 -35 19 -35 20 0 41 19 41 37 0 18 -45 17 -60
-2z"/>
<path d="M7050 5180 c0 -17 5 -21 28 -18 16 2 27 9 27 18 0 9 -11 16 -27 18
-23 3 -28 -1 -28 -18z"/>
<path d="M7330 5195 c-16 -20 -1 -39 26 -33 27 5 32 48 6 48 -11 0 -25 -7 -32
-15z"/>
<path d="M7477 5253 c-16 -15 -6 -33 18 -33 18 0 25 5 25 20 0 20 -28 28 -43
13z"/>
<path d="M7957 5254 c-15 -16 -5 -24 29 -24 24 0 34 4 32 13 -5 13 -50 22 -61
11z"/>
<path d="M8109 5218 c-6 -24 -13 -46 -16 -50 -2 -5 10 -8 26 -8 30 0 31 1 31
50 0 65 -24 69 -41 8z"/>
<path d="M8247 5203 c-4 -3 -7 -15 -7 -25 0 -30 54 -21 58 10 3 17 -1 22 -21
22 -13 0 -27 -3 -30 -7z"/>
</g>
</svg>
